<svg width="17" height="17" viewBox="0 0 17 17" fill="none" xmlns="http://www.w3.org/2000/svg">
<path fill-rule="evenodd" clip-rule="evenodd" d="M8.16 16.32C9.23159 16.32 10.2927 16.1089 11.2827 15.6989C12.2727 15.2888 13.1723 14.6877 13.93 13.93C14.6877 13.1723 15.2888 12.2727 15.6989 11.2827C16.1089 10.2927 16.32 9.23159 16.32 8.16C16.32 7.08841 16.1089 6.02732 15.6989 5.0373C15.2888 4.04729 14.6877 3.14773 13.93 2.39001C13.1723 1.63228 12.2727 1.03122 11.2827 0.621143C10.2927 0.211065 9.23159 -1.59679e-08 8.16 0C5.99583 3.22486e-08 3.92031 0.859712 2.39001 2.39001C0.859712 3.92031 0 5.99583 0 8.16C0 10.3242 0.859712 12.3997 2.39001 13.93C3.92031 15.4603 5.99583 16.32 8.16 16.32ZM7.94965 11.4603L12.483 6.02027L11.0903 4.85973L7.19168 9.53723L5.17435 7.51899L3.89232 8.80101L6.61232 11.521L7.31408 12.2228L7.94965 11.4603Z" fill="#899E27"/>
</svg>