<svg width="16" height="16" viewBox="0 0 16 16" fill="none" xmlns="http://www.w3.org/2000/svg">
<path d="M15.7714 13.1271L9.52528 0.977643C9.36919 0.679986 9.14637 0.433184 8.87889 0.261698C8.61141 0.0902134 8.30856 0 8.00036 0C7.69216 0 7.38931 0.0902134 7.12182 0.261698C6.85434 0.433184 6.63152 0.679986 6.47543 0.977643L0.229326 13.1271C0.079145 13.415 0 13.7425 0 14.0759C0 14.4094 0.079145 14.7368 0.229326 15.0247C0.383411 15.3242 0.605857 15.5723 0.873837 15.7437C1.14182 15.9151 1.44568 16.0035 1.75425 15.9999H14.2465C14.5548 16.0032 14.8584 15.9146 15.1261 15.7433C15.3938 15.5719 15.616 15.3239 15.77 15.0247C15.9204 14.7369 15.9997 14.4096 16 14.0761C16.0002 13.7427 15.9214 13.4152 15.7714 13.1271ZM7.42896 6.39999C7.42896 6.23025 7.48916 6.06747 7.59632 5.94745C7.70347 5.82742 7.84881 5.76 8.00036 5.76C8.1519 5.76 8.29724 5.82742 8.4044 5.94745C8.51155 6.06747 8.57176 6.23025 8.57176 6.39999V9.59996C8.57176 9.7697 8.51155 9.93248 8.4044 10.0525C8.29724 10.1725 8.1519 10.24 8.00036 10.24C7.84881 10.24 7.70347 10.1725 7.59632 10.0525C7.48916 9.93248 7.42896 9.7697 7.42896 9.59996V6.39999ZM8.00036 13.4399C7.83084 13.4399 7.66513 13.3836 7.52418 13.2781C7.38323 13.1726 7.27337 13.0227 7.2085 12.8473C7.14363 12.6719 7.12665 12.4789 7.15973 12.2926C7.1928 12.1064 7.27443 11.9354 7.3943 11.8011C7.51416 11.6669 7.66688 11.5754 7.83314 11.5384C7.9994 11.5013 8.17174 11.5204 8.32835 11.593C8.48497 11.6657 8.61883 11.7887 8.71301 11.9466C8.80719 12.1045 8.85745 12.2901 8.85745 12.4799C8.85745 12.7345 8.76715 12.9787 8.60642 13.1587C8.44568 13.3388 8.22767 13.4399 8.00036 13.4399Z" fill="#E9AA00"/>
</svg>
